<mxfile host="Electron" agent="Mozilla/5.0 (Windows NT 10.0; Win64; x64) AppleWebKit/537.36 (KHTML, like Gecko) draw.io/24.7.5 Chrome/126.0.6478.183 Electron/31.3.0 Safari/537.36" version="24.7.5">
  <diagram id="C5RBs43oDa-KdzZeNtuy" name="Page-1">
    <mxGraphModel dx="1098" dy="828" grid="0" gridSize="10" guides="1" tooltips="1" connect="1" arrows="1" fold="1" page="1" pageScale="1" pageWidth="827" pageHeight="1169" math="0" shadow="0">
      <root>
        <mxCell id="WIyWlLk6GJQsqaUBKTNV-0" />
        <mxCell id="WIyWlLk6GJQsqaUBKTNV-1" parent="WIyWlLk6GJQsqaUBKTNV-0" />
        <mxCell id="zkfFHV4jXpPFQw0GAbJ--0" value="World" style="swimlane;fontStyle=1;align=center;verticalAlign=top;childLayout=stackLayout;horizontal=1;startSize=26;horizontalStack=0;resizeParent=1;resizeLast=0;collapsible=1;marginBottom=0;rounded=0;shadow=0;strokeWidth=1;" parent="WIyWlLk6GJQsqaUBKTNV-1" vertex="1">
          <mxGeometry x="220" y="120" width="464" height="320" as="geometry">
            <mxRectangle x="230" y="140" width="160" height="26" as="alternateBounds" />
          </mxGeometry>
        </mxCell>
        <mxCell id="zkfFHV4jXpPFQw0GAbJ--1" value="-win:pygame.Surface #windows" style="text;align=left;verticalAlign=top;spacingLeft=4;spacingRight=4;overflow=hidden;rotatable=0;points=[[0,0.5],[1,0.5]];portConstraint=eastwest;" parent="zkfFHV4jXpPFQw0GAbJ--0" vertex="1">
          <mxGeometry y="26" width="464" height="26" as="geometry" />
        </mxCell>
        <mxCell id="zkfFHV4jXpPFQw0GAbJ--2" value="-run:bool=True # main game loop flag" style="text;align=left;verticalAlign=top;spacingLeft=4;spacingRight=4;overflow=hidden;rotatable=0;points=[[0,0.5],[1,0.5]];portConstraint=eastwest;rounded=0;shadow=0;html=0;" parent="zkfFHV4jXpPFQw0GAbJ--0" vertex="1">
          <mxGeometry y="52" width="464" height="26" as="geometry" />
        </mxCell>
        <mxCell id="zkfFHV4jXpPFQw0GAbJ--3" value="-delay_ms:int #dealy in ms used by pygame..time.delay()" style="text;align=left;verticalAlign=top;spacingLeft=4;spacingRight=4;overflow=hidden;rotatable=0;points=[[0,0.5],[1,0.5]];portConstraint=eastwest;rounded=0;shadow=0;html=0;" parent="zkfFHV4jXpPFQw0GAbJ--0" vertex="1">
          <mxGeometry y="78" width="464" height="26" as="geometry" />
        </mxCell>
        <mxCell id="cDCOHAYayKcIMJs_8Fwk-6" value="-gfxObjects : dict() # graphics objects {id:object}" style="text;align=left;verticalAlign=top;spacingLeft=4;spacingRight=4;overflow=hidden;rotatable=0;points=[[0,0.5],[1,0.5]];portConstraint=eastwest;rounded=0;shadow=0;html=0;fillColor=#d5e8d4;strokeColor=#82b366;" parent="zkfFHV4jXpPFQw0GAbJ--0" vertex="1">
          <mxGeometry y="104" width="464" height="26" as="geometry" />
        </mxCell>
        <mxCell id="zkfFHV4jXpPFQw0GAbJ--4" value="" style="line;html=1;strokeWidth=1;align=left;verticalAlign=middle;spacingTop=-1;spacingLeft=3;spacingRight=3;rotatable=0;labelPosition=right;points=[];portConstraint=eastwest;" parent="zkfFHV4jXpPFQw0GAbJ--0" vertex="1">
          <mxGeometry y="130" width="464" height="8" as="geometry" />
        </mxCell>
        <mxCell id="zkfFHV4jXpPFQw0GAbJ--5" value="+ new(width:int,height:int, caption:str, delay:int) # calls start()&#xa;" style="text;align=left;verticalAlign=top;spacingLeft=4;spacingRight=4;overflow=hidden;rotatable=0;points=[[0,0.5],[1,0.5]];portConstraint=eastwest;" parent="zkfFHV4jXpPFQw0GAbJ--0" vertex="1">
          <mxGeometry y="138" width="464" height="26" as="geometry" />
        </mxCell>
        <mxCell id="cDCOHAYayKcIMJs_8Fwk-5" value="- start(width:int,height:int, caption:str, delay:int) -&gt; pygame.Surface # window" style="text;align=left;verticalAlign=top;spacingLeft=4;spacingRight=4;overflow=hidden;rotatable=0;points=[[0,0.5],[1,0.5]];portConstraint=eastwest;" parent="zkfFHV4jXpPFQw0GAbJ--0" vertex="1">
          <mxGeometry y="164" width="464" height="26" as="geometry" />
        </mxCell>
        <mxCell id="cDCOHAYayKcIMJs_8Fwk-4" value="+ main_loop() #runs the main game loop and calls loop() to iterate GfxObjects" style="text;align=left;verticalAlign=top;spacingLeft=4;spacingRight=4;overflow=hidden;rotatable=0;points=[[0,0.5],[1,0.5]];portConstraint=eastwest;" parent="zkfFHV4jXpPFQw0GAbJ--0" vertex="1">
          <mxGeometry y="190" width="464" height="26" as="geometry" />
        </mxCell>
        <mxCell id="cDCOHAYayKcIMJs_8Fwk-3" value="+stop() # exits pygame without throwing errors" style="text;align=left;verticalAlign=top;spacingLeft=4;spacingRight=4;overflow=hidden;rotatable=0;points=[[0,0.5],[1,0.5]];portConstraint=eastwest;" parent="zkfFHV4jXpPFQw0GAbJ--0" vertex="1">
          <mxGeometry y="216" width="464" height="26" as="geometry" />
        </mxCell>
        <mxCell id="cDCOHAYayKcIMJs_8Fwk-8" value="+addObject(anObject:gfxObject) #inserts gfxObject into the dictionary" style="text;align=left;verticalAlign=top;spacingLeft=4;spacingRight=4;overflow=hidden;rotatable=0;points=[[0,0.5],[1,0.5]];portConstraint=eastwest;fillColor=#d5e8d4;strokeColor=#82b366;" parent="zkfFHV4jXpPFQw0GAbJ--0" vertex="1">
          <mxGeometry y="242" width="464" height="26" as="geometry" />
        </mxCell>
        <mxCell id="cDCOHAYayKcIMJs_8Fwk-7" value="+popObject(objectId:str) #remove gfxObject from dictionary and destroys it" style="text;align=left;verticalAlign=top;spacingLeft=4;spacingRight=4;overflow=hidden;rotatable=0;points=[[0,0.5],[1,0.5]];portConstraint=eastwest;fillColor=#d5e8d4;strokeColor=#82b366;" parent="zkfFHV4jXpPFQw0GAbJ--0" vertex="1">
          <mxGeometry y="268" width="464" height="26" as="geometry" />
        </mxCell>
        <mxCell id="cDCOHAYayKcIMJs_8Fwk-13" value="+loop() #called from main_loop(). loop() iterates all GfxObjects .update() .draw()" style="text;align=left;verticalAlign=top;spacingLeft=4;spacingRight=4;overflow=hidden;rotatable=0;points=[[0,0.5],[1,0.5]];portConstraint=eastwest;fillColor=#dae8fc;strokeColor=#6c8ebf;" parent="zkfFHV4jXpPFQw0GAbJ--0" vertex="1">
          <mxGeometry y="294" width="464" height="26" as="geometry" />
        </mxCell>
        <mxCell id="cDCOHAYayKcIMJs_8Fwk-0" value="Pygame-101b-uml-class-World(ver1)" style="text;html=1;align=center;verticalAlign=middle;whiteSpace=wrap;rounded=0;" parent="WIyWlLk6GJQsqaUBKTNV-1" vertex="1">
          <mxGeometry x="220" y="50" width="230" height="30" as="geometry" />
        </mxCell>
        <mxCell id="cDCOHAYayKcIMJs_8Fwk-9" value="GfxObject" style="swimlane;fontStyle=1;align=center;verticalAlign=top;childLayout=stackLayout;horizontal=1;startSize=26;horizontalStack=0;resizeParent=1;resizeParentMax=0;resizeLast=0;collapsible=1;marginBottom=0;whiteSpace=wrap;html=1;fillColor=#d5e8d4;strokeColor=#82b366;" parent="WIyWlLk6GJQsqaUBKTNV-1" vertex="1">
          <mxGeometry x="223" y="480" width="454" height="528" as="geometry" />
        </mxCell>
        <mxCell id="cDCOHAYayKcIMJs_8Fwk-10" value="-id:str #key string to identify this object in the World.gfxObjects dictionary" style="text;strokeColor=none;fillColor=none;align=left;verticalAlign=top;spacingLeft=4;spacingRight=4;overflow=hidden;rotatable=0;points=[[0,0.5],[1,0.5]];portConstraint=eastwest;whiteSpace=wrap;html=1;" parent="cDCOHAYayKcIMJs_8Fwk-9" vertex="1">
          <mxGeometry y="26" width="454" height="26" as="geometry" />
        </mxCell>
        <mxCell id="cDCOHAYayKcIMJs_8Fwk-15" value="-pos_size: pygame.Rect(x,y,width,height) #(x,y) position; (width,height)" style="text;strokeColor=none;fillColor=none;align=left;verticalAlign=top;spacingLeft=4;spacingRight=4;overflow=hidden;rotatable=0;points=[[0,0.5],[1,0.5]];portConstraint=eastwest;whiteSpace=wrap;html=1;" parent="cDCOHAYayKcIMJs_8Fwk-9" vertex="1">
          <mxGeometry y="52" width="454" height="26" as="geometry" />
        </mxCell>
        <mxCell id="cDCOHAYayKcIMJs_8Fwk-14" value="-attributes : dict() # dictionary of custom attributes eg {alive:True)" style="text;strokeColor=none;fillColor=none;align=left;verticalAlign=top;spacingLeft=4;spacingRight=4;overflow=hidden;rotatable=0;points=[[0,0.5],[1,0.5]];portConstraint=eastwest;whiteSpace=wrap;html=1;" parent="cDCOHAYayKcIMJs_8Fwk-9" vertex="1">
          <mxGeometry y="78" width="454" height="26" as="geometry" />
        </mxCell>
        <mxCell id="cDCOHAYayKcIMJs_8Fwk-16" value="-surface : pygame.Surface # graphical representation for current frame" style="text;strokeColor=#9673a6;fillColor=#e1d5e7;align=left;verticalAlign=top;spacingLeft=4;spacingRight=4;overflow=hidden;rotatable=0;points=[[0,0.5],[1,0.5]];portConstraint=eastwest;whiteSpace=wrap;html=1;" parent="cDCOHAYayKcIMJs_8Fwk-9" vertex="1">
          <mxGeometry y="104" width="454" height="26" as="geometry" />
        </mxCell>
        <mxCell id="cDCOHAYayKcIMJs_8Fwk-11" value="" style="line;strokeWidth=1;fillColor=none;align=left;verticalAlign=middle;spacingTop=-1;spacingLeft=3;spacingRight=3;rotatable=0;labelPosition=right;points=[];portConstraint=eastwest;strokeColor=inherit;" parent="cDCOHAYayKcIMJs_8Fwk-9" vertex="1">
          <mxGeometry y="130" width="454" height="8" as="geometry" />
        </mxCell>
        <mxCell id="cDCOHAYayKcIMJs_8Fwk-12" value="+new(&lt;span style=&quot;font-family: Consolas, &amp;quot;Courier New&amp;quot;, monospace; font-size: 10pt;&quot;&gt;stringId&lt;/span&gt;&lt;span style=&quot;font-family: Consolas, &amp;quot;Courier New&amp;quot;, monospace; font-size: 10pt;&quot;&gt;:&lt;/span&gt;&lt;span style=&quot;font-family: Consolas, &amp;quot;Courier New&amp;quot;, monospace; font-size: 10pt;&quot;&gt;str&lt;/span&gt;&lt;span style=&quot;font-family: Consolas, &amp;quot;Courier New&amp;quot;, monospace; font-size: 10pt;&quot;&gt;,&lt;/span&gt;&lt;span style=&quot;font-family: Consolas, &amp;quot;Courier New&amp;quot;, monospace; font-size: 10pt;&quot;&gt;x&lt;/span&gt;&lt;span style=&quot;font-family: Consolas, &amp;quot;Courier New&amp;quot;, monospace; font-size: 10pt;&quot;&gt;:&lt;/span&gt;&lt;span style=&quot;font-family: Consolas, &amp;quot;Courier New&amp;quot;, monospace; font-size: 10pt;&quot;&gt;int&lt;/span&gt;&lt;span style=&quot;font-family: Consolas, &amp;quot;Courier New&amp;quot;, monospace; font-size: 10pt;&quot;&gt;,&lt;/span&gt;&lt;span style=&quot;font-family: Consolas, &amp;quot;Courier New&amp;quot;, monospace; font-size: 10pt;&quot;&gt;y&lt;/span&gt;&lt;span style=&quot;font-family: Consolas, &amp;quot;Courier New&amp;quot;, monospace; font-size: 10pt;&quot;&gt;:&lt;/span&gt;&lt;span style=&quot;font-family: Consolas, &amp;quot;Courier New&amp;quot;, monospace; font-size: 10pt;&quot;&gt;int&lt;/span&gt;&lt;span style=&quot;font-family: Consolas, &amp;quot;Courier New&amp;quot;, monospace; font-size: 10pt;&quot;&gt;,&lt;/span&gt;&lt;span style=&quot;font-family: Consolas, &amp;quot;Courier New&amp;quot;, monospace; font-size: 10pt;&quot;&gt;w&lt;/span&gt;&lt;span style=&quot;font-family: Consolas, &amp;quot;Courier New&amp;quot;, monospace; font-size: 10pt;&quot;&gt;:&lt;/span&gt;&lt;span style=&quot;font-family: Consolas, &amp;quot;Courier New&amp;quot;, monospace; font-size: 10pt;&quot;&gt;int&lt;/span&gt;&lt;span style=&quot;font-family: Consolas, &amp;quot;Courier New&amp;quot;, monospace; font-size: 10pt;&quot;&gt;,&lt;/span&gt;&lt;span style=&quot;font-family: Consolas, &amp;quot;Courier New&amp;quot;, monospace; font-size: 10pt;&quot;&gt;h&lt;/span&gt;&lt;span style=&quot;font-family: Consolas, &amp;quot;Courier New&amp;quot;, monospace; font-size: 10pt;&quot;&gt;:&lt;/span&gt;&lt;span style=&quot;font-family: Consolas, &amp;quot;Courier New&amp;quot;, monospace; font-size: 10pt;&quot;&gt;int&lt;/span&gt;&lt;span style=&quot;font-family: Consolas, &amp;quot;Courier New&amp;quot;, monospace; font-size: 10pt;&quot;&gt;)&lt;/span&gt;" style="text;strokeColor=none;fillColor=none;align=left;verticalAlign=top;spacingLeft=4;spacingRight=4;overflow=hidden;rotatable=0;points=[[0,0.5],[1,0.5]];portConstraint=eastwest;whiteSpace=wrap;html=1;" parent="cDCOHAYayKcIMJs_8Fwk-9" vertex="1">
          <mxGeometry y="138" width="454" height="26" as="geometry" />
        </mxCell>
        <mxCell id="cDCOHAYayKcIMJs_8Fwk-19" value="+width() -&amp;gt;int&amp;nbsp; &amp;nbsp; # getter for surface width" style="text;strokeColor=none;fillColor=none;align=left;verticalAlign=top;spacingLeft=4;spacingRight=4;overflow=hidden;rotatable=0;points=[[0,0.5],[1,0.5]];portConstraint=eastwest;whiteSpace=wrap;html=1;" parent="cDCOHAYayKcIMJs_8Fwk-9" vertex="1">
          <mxGeometry y="164" width="454" height="26" as="geometry" />
        </mxCell>
        <mxCell id="cDCOHAYayKcIMJs_8Fwk-18" value="+height() -&amp;gt; int&amp;nbsp; # getter for surface height" style="text;strokeColor=none;fillColor=none;align=left;verticalAlign=top;spacingLeft=4;spacingRight=4;overflow=hidden;rotatable=0;points=[[0,0.5],[1,0.5]];portConstraint=eastwest;whiteSpace=wrap;html=1;" parent="cDCOHAYayKcIMJs_8Fwk-9" vertex="1">
          <mxGeometry y="190" width="454" height="26" as="geometry" />
        </mxCell>
        <mxCell id="dwGOswaaOm0pT84eZmrl-4" value="+getPos() -&amp;gt; (x,y) #getter for objects position (top left corner)" style="text;strokeColor=#6c8ebf;fillColor=#dae8fc;align=left;verticalAlign=top;spacingLeft=4;spacingRight=4;overflow=hidden;rotatable=0;points=[[0,0.5],[1,0.5]];portConstraint=eastwest;whiteSpace=wrap;html=1;" vertex="1" parent="cDCOHAYayKcIMJs_8Fwk-9">
          <mxGeometry y="216" width="454" height="26" as="geometry" />
        </mxCell>
        <mxCell id="dwGOswaaOm0pT84eZmrl-5" value="+setPos(x,y) # changes position to (x,y)" style="text;strokeColor=#6c8ebf;fillColor=#dae8fc;align=left;verticalAlign=top;spacingLeft=4;spacingRight=4;overflow=hidden;rotatable=0;points=[[0,0.5],[1,0.5]];portConstraint=eastwest;whiteSpace=wrap;html=1;" vertex="1" parent="cDCOHAYayKcIMJs_8Fwk-9">
          <mxGeometry y="242" width="454" height="26" as="geometry" />
        </mxCell>
        <mxCell id="cDCOHAYayKcIMJs_8Fwk-20" value="+addAttribute(anAttribute:str, aValue:Any) #adds an attrivute and value" style="text;strokeColor=none;fillColor=none;align=left;verticalAlign=top;spacingLeft=4;spacingRight=4;overflow=hidden;rotatable=0;points=[[0,0.5],[1,0.5]];portConstraint=eastwest;whiteSpace=wrap;html=1;" parent="cDCOHAYayKcIMJs_8Fwk-9" vertex="1">
          <mxGeometry y="268" width="454" height="26" as="geometry" />
        </mxCell>
        <mxCell id="cDCOHAYayKcIMJs_8Fwk-17" value="+getAttribute(&lt;span style=&quot;font-family: Consolas, &amp;quot;Courier New&amp;quot;, monospace; font-size: 10pt;&quot;&gt;anAttribute&lt;/span&gt;&lt;span style=&quot;font-family: Consolas, &amp;quot;Courier New&amp;quot;, monospace; font-size: 10pt;&quot;&gt;:&lt;/span&gt;&lt;span style=&quot;font-family: Consolas, &amp;quot;Courier New&amp;quot;, monospace; font-size: 10pt;&quot;&gt;str&lt;/span&gt;&lt;span style=&quot;font-family: Consolas, &amp;quot;Courier New&amp;quot;, monospace; font-size: 10pt;&quot;&gt;)-&amp;gt;&lt;/span&gt;&lt;span style=&quot;font-family: Consolas, &amp;quot;Courier New&amp;quot;, monospace; font-size: 10pt;&quot;&gt;any&lt;/span&gt;&lt;span style=&quot;font-family: Consolas, &amp;quot;Courier New&amp;quot;, monospace; font-size: 10pt;&quot;&gt;:&lt;/span&gt;&lt;span style=&quot;font-family: Consolas, &amp;quot;Courier New&amp;quot;, monospace; font-size: 10pt;&quot;&gt;&amp;nbsp;&lt;/span&gt;&lt;span style=&quot;font-family: Consolas, &amp;quot;Courier New&amp;quot;, monospace; font-size: 10pt; font-weight: bold; font-style: italic;&quot;&gt;#None&amp;nbsp;if&amp;nbsp;dne&lt;/span&gt;" style="text;strokeColor=none;fillColor=none;align=left;verticalAlign=top;spacingLeft=4;spacingRight=4;overflow=hidden;rotatable=0;points=[[0,0.5],[1,0.5]];portConstraint=eastwest;whiteSpace=wrap;html=1;" parent="cDCOHAYayKcIMJs_8Fwk-9" vertex="1">
          <mxGeometry y="294" width="454" height="26" as="geometry" />
        </mxCell>
        <mxCell id="cDCOHAYayKcIMJs_8Fwk-23" value="+setSurface(&lt;span style=&quot;font-family: Consolas, &amp;quot;Courier New&amp;quot;, monospace; font-size: 10pt;&quot;&gt;newSurface&lt;/span&gt;&lt;span style=&quot;font-family: Consolas, &amp;quot;Courier New&amp;quot;, monospace; font-size: 10pt;&quot;&gt;:&lt;/span&gt;&lt;span style=&quot;font-family: Consolas, &amp;quot;Courier New&amp;quot;, monospace; font-size: 10pt;&quot;&gt;pygame&lt;/span&gt;&lt;span style=&quot;font-family: Consolas, &amp;quot;Courier New&amp;quot;, monospace; font-size: 10pt;&quot;&gt;.&lt;/span&gt;&lt;span style=&quot;font-family: Consolas, &amp;quot;Courier New&amp;quot;, monospace; font-size: 10pt;&quot;&gt;Surface&lt;/span&gt;&lt;span style=&quot;font-family: Consolas, &amp;quot;Courier New&amp;quot;, monospace; font-size: 10pt;&quot;&gt;) #Set .surface/image&lt;/span&gt;" style="text;strokeColor=none;fillColor=none;align=left;verticalAlign=top;spacingLeft=4;spacingRight=4;overflow=hidden;rotatable=0;points=[[0,0.5],[1,0.5]];portConstraint=eastwest;whiteSpace=wrap;html=1;fontColor=default;" parent="cDCOHAYayKcIMJs_8Fwk-9" vertex="1">
          <mxGeometry y="320" width="454" height="26" as="geometry" />
        </mxCell>
        <mxCell id="dwGOswaaOm0pT84eZmrl-2" value="+ add_key_binds(dirStr:str,pygameKey)#Bind dirStr to pygameKey" style="text;strokeColor=#6c8ebf;fillColor=#dae8fc;align=left;verticalAlign=top;spacingLeft=4;spacingRight=4;overflow=hidden;rotatable=0;points=[[0,0.5],[1,0.5]];portConstraint=eastwest;whiteSpace=wrap;html=1;" vertex="1" parent="cDCOHAYayKcIMJs_8Fwk-9">
          <mxGeometry y="346" width="454" height="26" as="geometry" />
        </mxCell>
        <mxCell id="dwGOswaaOm0pT84eZmrl-1" value="+ handleKeyMovement(keys) # Implement action on any bound key.&amp;nbsp;&lt;div&gt;&amp;nbsp; &amp;nbsp; &amp;nbsp; keys is a pygame key event set by World.loop()&lt;/div&gt;" style="text;strokeColor=#6c8ebf;fillColor=#dae8fc;align=left;verticalAlign=top;spacingLeft=4;spacingRight=4;overflow=hidden;rotatable=0;points=[[0,0.5],[1,0.5]];portConstraint=eastwest;whiteSpace=wrap;html=1;" vertex="1" parent="cDCOHAYayKcIMJs_8Fwk-9">
          <mxGeometry y="372" width="454" height="52" as="geometry" />
        </mxCell>
        <mxCell id="cDCOHAYayKcIMJs_8Fwk-22" value="+update(dx:int,dy:int) : # moves position to (x+dx,y+dy)" style="text;strokeColor=#6c8ebf;fillColor=#dae8fc;align=left;verticalAlign=top;spacingLeft=4;spacingRight=4;overflow=hidden;rotatable=0;points=[[0,0.5],[1,0.5]];portConstraint=eastwest;whiteSpace=wrap;html=1;" parent="cDCOHAYayKcIMJs_8Fwk-9" vertex="1">
          <mxGeometry y="424" width="454" height="26" as="geometry" />
        </mxCell>
        <mxCell id="cDCOHAYayKcIMJs_8Fwk-24" value="+draw(win:pygame.Surface) # draws the surface at (x,y) on surface win" style="text;strokeColor=#6c8ebf;fillColor=#dae8fc;align=left;verticalAlign=top;spacingLeft=4;spacingRight=4;overflow=hidden;rotatable=0;points=[[0,0.5],[1,0.5]];portConstraint=eastwest;whiteSpace=wrap;html=1;" parent="cDCOHAYayKcIMJs_8Fwk-9" vertex="1">
          <mxGeometry y="450" width="454" height="26" as="geometry" />
        </mxCell>
        <mxCell id="dwGOswaaOm0pT84eZmrl-7" value="+getKeyIdStrings() --&amp;gt; list of keyIdStrings [&quot;left&quot;, &quot;right&quot;,...]" style="text;strokeColor=#6c8ebf;fillColor=#dae8fc;align=left;verticalAlign=top;spacingLeft=4;spacingRight=4;overflow=hidden;rotatable=0;points=[[0,0.5],[1,0.5]];portConstraint=eastwest;whiteSpace=wrap;html=1;" vertex="1" parent="cDCOHAYayKcIMJs_8Fwk-9">
          <mxGeometry y="476" width="454" height="26" as="geometry" />
        </mxCell>
        <mxCell id="dwGOswaaOm0pT84eZmrl-6" value="+wasPressed(keyId:str, keys:pygame.key) -&amp;gt; bool: #True if a bound key is pressed" style="text;strokeColor=#6c8ebf;fillColor=#dae8fc;align=left;verticalAlign=top;spacingLeft=4;spacingRight=4;overflow=hidden;rotatable=0;points=[[0,0.5],[1,0.5]];portConstraint=eastwest;whiteSpace=wrap;html=1;" vertex="1" parent="cDCOHAYayKcIMJs_8Fwk-9">
          <mxGeometry y="502" width="454" height="26" as="geometry" />
        </mxCell>
        <mxCell id="cDCOHAYayKcIMJs_8Fwk-25" value="" style="endArrow=diamondThin;endFill=1;endSize=24;html=1;rounded=0;entryX=1;entryY=0.5;entryDx=0;entryDy=0;exitX=0.5;exitY=0;exitDx=0;exitDy=0;" parent="WIyWlLk6GJQsqaUBKTNV-1" source="cDCOHAYayKcIMJs_8Fwk-9" target="cDCOHAYayKcIMJs_8Fwk-6" edge="1">
          <mxGeometry width="160" relative="1" as="geometry">
            <mxPoint x="777" y="237" as="sourcePoint" />
            <mxPoint x="420" y="470" as="targetPoint" />
            <Array as="points">
              <mxPoint x="450" y="460" />
              <mxPoint x="738" y="460" />
              <mxPoint x="735" y="351" />
              <mxPoint x="735" y="239" />
            </Array>
          </mxGeometry>
        </mxCell>
      </root>
    </mxGraphModel>
  </diagram>
</mxfile>
